<svg width="38" height="35" viewBox="0 0 38 35" fill="none" xmlns="http://www.w3.org/2000/svg">
<path d="M2.18439 6.01694C3.90722 3.66668 6.4523 2.21736 9.34979 1.90399C11.5425 1.66896 13.5786 2.13901 15.4972 3.31414C16.476 3.90171 17.3375 4.64596 18.1597 5.54689C18.747 4.48928 19.4518 3.54917 20.2741 2.76575C21.8795 1.19891 23.7981 0.297981 25.9516 0.062955C28.8491 -0.250413 31.6683 0.611348 33.861 2.53073C36.0145 4.41093 37.3849 7.1529 37.7373 10.2474C38.0897 13.4203 37.2283 16.4756 35.0356 19.8443C33.0779 22.8605 30.1021 25.9941 26.6564 29.6762C25.4818 30.9297 24.1505 32.3398 22.78 33.8283C22.4276 34.2201 21.9186 34.4942 21.3705 34.5334C20.8223 34.6118 20.3133 34.4551 19.8434 34.1417C18.1597 32.9666 16.5544 31.8698 15.1448 30.9297C10.9943 28.1094 7.39202 25.6808 4.80777 23.1738C1.91028 20.3927 0.422393 17.5724 0.0699955 14.3995C-0.243246 11.305 0.500713 8.32803 2.18439 6.01694Z" fill="white"/>
</svg>
