<svg width="40" height="58" viewBox="0 0 40 58" fill="none" xmlns="http://www.w3.org/2000/svg">
<path d="M39.1641 20.4239C38.7726 29.9425 22.6798 52.1916 18.8425 57.4013C18.451 57.9497 17.6287 57.9105 17.2763 57.323C14.8487 53.4059 6.8219 40.2444 2.63229 29.5899C0.94861 25.3594 -0.108586 21.5207 0.00887964 18.8179C0.439587 8.0067 9.56276 -0.415057 20.3696 0.0158235C31.1764 0.525046 39.5948 9.61273 39.1641 20.4239Z" fill="black"/>
<path d="M25.9192 25.9893C29.4208 22.4862 29.4208 16.8067 25.9192 13.3037C22.4176 9.80067 16.7403 9.80065 13.2387 13.3037C9.73707 16.8067 9.73707 22.4863 13.2387 25.9893C16.7403 29.4923 22.4176 29.4923 25.9192 25.9893Z" fill="#B9FF66"/>
</svg>
