<svg width="34" height="31" viewBox="0 0 34 31" fill="none" xmlns="http://www.w3.org/2000/svg">
<path d="M27.6436 18.4887C25.7641 18.4887 24.1196 19.3896 23.0233 20.7998L11.7074 16.3735C11.7074 16.2168 11.7466 16.0993 11.7466 15.9426C11.7466 15.6684 11.7074 15.3942 11.6683 15.12L23.2582 9.75357C24.3154 10.9679 25.8816 11.7513 27.6436 11.7905C30.8543 11.7905 33.5169 9.16601 33.5169 5.91482C33.5169 2.66363 30.8935 0 27.6436 0C24.4329 0 21.7703 2.62446 21.7703 5.87565C21.7703 6.14984 21.8095 6.42404 21.8486 6.69824L10.2587 12.0647C9.20149 10.8504 7.63527 10.0669 5.87329 10.0278C2.66256 10.0278 0 12.6522 0 15.9034C0 19.1546 2.6234 21.8182 5.87329 21.8182C7.75274 21.8182 9.39728 20.9173 10.4936 19.5071L21.8095 23.9335C21.8095 24.0902 21.7703 24.2077 21.7703 24.3644C21.7703 27.6155 24.3937 30.2792 27.6436 30.2792C30.8543 30.2792 33.5169 27.6547 33.5169 24.4035C33.4777 21.1523 30.8543 18.5279 27.6436 18.4887Z" fill="black"/>
</svg>
